<?xml version="1.0" standalone="no"?>
<!DOCTYPE svg PUBLIC "-//W3C//DTD SVG 20010904//EN"
 "http://www.w3.org/TR/2001/REC-SVG-20010904/DTD/svg10.dtd">
<svg version="1.0" xmlns="http://www.w3.org/2000/svg"
 width="640.000000pt" height="640.000000pt" viewBox="0 0 640.000000 640.000000"
 preserveAspectRatio="xMidYMid meet">

<g transform="translate(0.000000,640.000000) scale(0.100000,-0.100000)"
fill="#000000" stroke="none">
<path d="M0 3200 l0 -3200 3200 0 3200 0 0 3200 0 3200 -3200 0 -3200 0 0
-3200z m3110 2710 c-12 -23 -30 -27 -30 -6 0 8 8 17 18 19 9 3 18 5 20 6 1 0
-2 -8 -8 -19z m-260 -208 c0 -23 -35 -65 -55 -68 -8 -1 -15 4 -15 12 0 8 5 13
12 12 6 -2 14 6 16 17 8 41 42 62 42 27z m-66 -7 c-4 -8 -8 -15 -10 -15 -2 0
-4 7 -4 15 0 8 4 15 10 15 5 0 7 -7 4 -15z m-174 -27 c-3 -48 -3 -48 32 -33
23 9 38 10 51 3 10 -5 23 -7 30 -4 7 2 4 5 -5 5 -25 1 -23 21 2 21 12 0 20 7
21 18 0 13 3 11 12 -7 9 -19 9 -25 -1 -29 -6 -2 -12 -13 -12 -24 0 -22 24 -51
34 -40 11 10 106 9 106 -1 0 -5 7 -6 15 -3 8 3 23 9 32 13 13 5 15 3 10 -11
-5 -13 -3 -17 7 -13 8 3 30 -3 50 -14 44 -23 69 -24 87 -3 7 8 30 25 52 36
l40 20 63 -27 c69 -30 152 -37 177 -16 10 8 17 9 22 1 3 -5 20 -10 37 -10 17
0 46 -9 64 -21 30 -18 36 -19 61 -6 16 8 51 13 83 12 30 -1 62 1 70 5 27 13
41 1 28 -23 -9 -19 -9 -20 3 -11 18 15 69 24 69 13 0 -5 -5 -9 -11 -9 -6 0 -9
-9 -6 -20 5 -21 -18 -29 -25 -9 -2 7 -9 5 -17 -5 -9 -11 -10 -16 -2 -16 6 0
11 -7 11 -15 0 -8 5 -15 10 -15 10 0 32 -21 73 -70 14 -16 16 -25 8 -33 -13
-13 -15 -30 -2 -23 5 3 11 -4 14 -16 4 -12 1 -25 -5 -29 -6 -4 -8 -14 -5 -22
3 -9 -4 -28 -15 -42 -16 -21 -18 -29 -8 -35 7 -4 10 -15 6 -25 -4 -12 0 -18
15 -22 16 -4 19 -11 15 -29 -3 -12 -8 -42 -11 -65 -3 -24 -7 -45 -9 -46 -2 -2
-13 10 -24 28 -20 32 -20 32 -32 10 -6 -13 -9 -28 -7 -35 3 -7 2 -31 -3 -54
-5 -30 -4 -45 6 -53 9 -7 13 -28 11 -61 -4 -50 -25 -88 -51 -88 -8 0 -17 -6
-20 -12 -5 -10 -7 -10 -12 0 -3 6 -11 12 -18 12 -6 0 -23 8 -36 18 -27 18 -92
44 -98 37 -6 -6 18 -45 29 -45 6 0 30 -13 54 -30 31 -21 45 -39 51 -62 6 -29
47 -78 66 -78 4 0 10 10 14 23 10 31 24 37 43 18 11 -11 20 -48 27 -116 16
-146 10 -217 -21 -229 -8 -3 -15 -16 -15 -30 0 -14 -4 -27 -9 -30 -5 -3 -12
-22 -15 -42 -4 -19 -16 -50 -27 -67 -10 -18 -19 -46 -19 -64 0 -17 -4 -33 -9
-35 -11 -4 -61 -179 -60 -210 0 -13 3 -17 6 -10 2 6 9 12 14 12 13 0 11 -37
-2 -45 -6 -4 -8 -14 -5 -22 6 -15 -17 -60 -42 -80 -8 -7 -14 -25 -14 -40 0
-29 -42 -78 -58 -68 -4 3 -10 -4 -13 -15 -3 -11 -13 -23 -24 -27 -10 -3 -35
-21 -57 -39 -21 -18 -52 -36 -70 -40 -17 -3 -33 -9 -36 -13 -3 -3 -68 -27
-145 -53 l-140 -46 -120 8 c-66 5 -138 14 -160 20 -22 7 -56 12 -76 11 -59 -2
-187 35 -286 82 -13 6 -26 8 -29 5 -10 -11 68 -80 140 -123 39 -24 90 -62 114
-84 41 -39 63 -47 142 -56 19 -2 62 -8 95 -13 33 -5 74 -7 92 -5 17 3 46 0 65
-6 45 -15 166 -22 173 -10 4 5 11 7 16 3 5 -3 15 -1 22 4 7 5 29 12 49 15 21
3 55 20 77 37 22 18 44 29 49 26 6 -3 12 1 16 9 3 8 17 15 31 15 16 0 25 6 25
15 0 9 9 15 25 15 14 0 25 4 25 8 0 5 16 17 35 28 19 10 40 31 46 46 16 40 25
42 52 12 70 -75 11 -195 -268 -550 -44 -55 -114 -148 -156 -205 -42 -58 -131
-159 -198 -225 -113 -114 -121 -125 -137 -183 -17 -60 -20 -64 -83 -105 -95
-62 -118 -90 -144 -181 -13 -43 -29 -81 -36 -83 -21 -7 -63 40 -92 105 -50
108 -97 172 -184 252 -51 47 -58 74 -51 193 7 108 29 208 46 208 5 0 12 26 16
57 7 60 7 59 -72 458 -41 208 -58 294 -75 385 -7 44 -24 85 -50 127 -42 67
-83 179 -94 256 -4 26 -11 49 -15 52 -3 2 -23 -1 -42 -7 -60 -18 -86 3 -127
102 -32 77 -34 92 -31 165 6 137 2 208 -15 263 -9 28 -21 52 -25 52 -15 0 -21
39 -10 60 19 35 57 43 95 20 56 -35 65 -23 67 99 2 192 6 255 17 321 6 36 19
117 30 181 10 63 23 124 29 135 5 10 10 21 10 24 2 21 19 43 44 56 18 9 28 22
26 32 -3 20 33 60 50 54 7 -2 16 8 22 22 5 15 21 31 35 36 31 12 32 33 3 48
-23 10 -22 11 5 11 15 1 34 9 43 20 14 15 28 18 96 15 44 -2 84 -6 88 -9 9 -6
40 50 40 72 0 7 3 13 6 13 3 0 5 -15 4 -32z m1230 -72 c0 -3 -4 -8 -10 -11 -5
-3 -10 -1 -10 4 0 6 5 11 10 11 6 0 10 -2 10 -4z m-1576 -65 c3 -5 -1 -12 -10
-15 -20 -8 -29 -1 -19 13 8 13 22 14 29 2z m1641 -891 c3 -5 1 -10 -4 -10 -6
0 -11 5 -11 10 0 6 2 10 4 10 3 0 8 -4 11 -10z m279 -212 c9 -12 16 -26 16
-29 0 -4 -25 -22 -56 -40 -31 -18 -72 -45 -90 -61 -18 -16 -38 -27 -44 -23
-14 8 -13 88 2 120 8 19 19 25 42 25 17 0 40 7 50 15 28 22 63 18 80 -7z m-19
-134 c-3 -21 -12 -46 -20 -58 -8 -13 -14 -67 -17 -151 -5 -141 -25 -212 -67
-234 -12 -7 -21 -18 -21 -26 0 -18 -57 -55 -83 -55 -26 0 -67 45 -67 73 0 22
48 98 80 125 11 10 12 15 3 18 -9 4 -9 11 -1 29 7 17 8 28 1 37 -13 16 -2 99
12 99 19 1 45 33 40 49 -3 10 1 23 10 30 8 7 15 21 15 31 0 10 8 23 18 28 14
8 23 5 38 -12 18 -22 19 -22 22 -2 4 19 30 55 40 55 2 0 1 -16 -3 -36z m-405
-868 c0 -3 -4 -8 -10 -11 -5 -3 -10 -1 -10 4 0 6 5 11 10 11 6 0 10 -2 10 -4z
m-290 -1256 c0 -5 -4 -10 -10 -10 -5 0 -10 5 -10 10 0 6 5 10 10 10 6 0 10 -4
10 -10z m-20 -30 c0 -5 7 -10 16 -10 9 0 14 -6 11 -12 -2 -7 -11 -12 -20 -10
-8 1 -18 -2 -22 -8 -3 -5 -1 -10 4 -10 24 0 8 -28 -50 -90 -34 -36 -78 -85
-98 -110 -20 -25 -46 -53 -58 -63 -13 -10 -23 -25 -23 -33 0 -8 -4 -13 -8 -10
-5 3 -17 -9 -27 -26 -10 -17 -24 -38 -32 -47 -44 -51 -73 -89 -73 -95 0 -3
-20 -28 -44 -54 -58 -63 -85 -92 -124 -140 -59 -73 -180 -189 -202 -195 -13
-3 -23 0 -27 9 -3 8 -19 14 -39 14 -31 0 -37 5 -54 43 -11 23 -29 56 -40 72
-11 17 -23 37 -26 45 -3 8 -17 37 -30 63 -13 27 -24 56 -24 65 0 8 -6 23 -13
31 -7 9 -20 36 -27 61 -7 25 -17 50 -21 55 -8 12 -17 60 -25 128 -4 37 -2 48
8 45 7 -3 14 -16 15 -29 3 -37 22 -110 39 -154 9 -22 20 -49 24 -60 7 -19 29
-68 80 -177 12 -27 26 -50 31 -54 5 -3 9 -14 9 -25 0 -10 3 -19 8 -19 4 0 14
-13 23 -28 10 -18 24 -28 36 -27 25 1 66 33 81 62 7 12 21 25 32 28 11 3 20
13 20 21 0 8 13 23 30 32 16 9 30 22 30 27 0 6 12 18 25 28 23 16 27 17 41 3
20 -21 24 -20 24 3 0 11 -7 21 -15 23 -11 2 -10 8 6 28 14 17 22 21 26 13 5
-13 33 -18 33 -7 0 4 -7 12 -15 18 -12 10 -12 13 1 31 12 16 18 17 33 8 18
-12 31 -8 31 9 0 4 -7 8 -15 8 -19 0 -19 11 -1 36 12 15 17 17 27 7 17 -17 29
-16 29 2 0 8 -4 15 -10 15 -15 0 -12 26 5 40 12 10 19 10 27 2 16 -16 28 -15
28 3 0 8 -7 15 -15 15 -19 0 -19 9 1 35 12 17 17 18 35 7 26 -17 40 -5 16 13
-15 11 -16 17 -7 34 12 23 25 27 35 11 9 -15 25 -12 25 5 0 8 -4 15 -10 15
-14 0 -12 13 4 36 12 15 17 17 27 7 18 -17 29 -16 29 3 0 8 -4 13 -9 9 -5 -3
-13 0 -17 6 -6 11 12 33 79 97 15 15 27 31 27 37 0 17 78 95 95 95 8 0 15 -4
15 -10z m-786 -997 c-38 -28 -48 -3 -11 29 21 19 22 19 26 2 2 -10 -5 -24 -15
-31z m-65 -36 c0 -12 -4 -31 -9 -42 -6 -15 -9 -8 -9 28 -1 30 3 46 9 42 6 -3
10 -16 9 -28z m78 -4 c-3 -10 -13 -40 -23 -66 -9 -26 -14 -51 -10 -54 4 -4 24
-6 45 -5 24 2 43 -3 51 -13 11 -13 5 -15 -48 -15 -85 0 -91 11 -56 100 15 38
31 70 37 70 5 0 7 -8 4 -17z m-157 -74 c16 -13 35 -19 45 -15 12 4 16 1 13
-11 -5 -28 -36 -27 -77 1 -20 14 -44 26 -52 27 -8 0 -6 4 6 9 29 13 33 12 65
-11z m-5 -78 c-15 -14 -55 -23 -55 -13 0 15 12 22 39 22 15 0 21 -4 16 -9z
m42 -33 c-3 -8 -6 -5 -6 6 -1 11 2 17 5 13 3 -3 4 -12 1 -19z m63 -3 c0 -2 -7
-30 -15 -62 -8 -31 -15 -100 -15 -153 0 -97 -14 -141 -38 -126 -17 10 -15 64
8 169 29 134 42 177 51 177 5 0 9 -2 9 -5z m85 -43 c-3 -3 -11 0 -18 7 -9 10
-8 11 6 5 10 -3 15 -9 12 -12z m55 -32 c-15 -11 -21 -23 -17 -34 4 -9 2 -16
-4 -16 -5 0 -7 -11 -3 -25 7 -26 -7 -34 -23 -12 -30 37 -14 90 31 107 32 12
42 -1 16 -20z m-233 -62 c-3 -8 -6 -5 -6 6 -1 11 2 17 5 13 3 -3 4 -12 1 -19z
m-32 -107 c-15 -45 -31 -79 -36 -75 -5 3 -9 12 -9 20 0 22 59 148 66 141 3 -3
-6 -42 -21 -86z"/>
<path d="M3610 5511 c0 -10 24 -21 43 -21 7 0 3 7 -7 15 -22 17 -36 19 -36 6z"/>
<path d="M2620 4846 c0 -18 -29 -29 -44 -17 -9 7 -35 8 -123 2 -18 -1 -16 -21
1 -21 7 0 19 -6 25 -14 9 -11 41 -16 114 -18 56 -2 110 -7 119 -12 16 -7 17
-4 12 25 -8 40 -42 73 -60 58 -8 -7 -14 -6 -19 1 -9 15 -25 12 -25 -4z"/>
<path d="M3305 4810 c-65 -6 -96 -29 -119 -85 -11 -25 -23 -45 -29 -45 -11 0
-47 -39 -47 -52 0 -5 13 -2 29 6 16 9 30 13 33 11 2 -2 16 14 31 37 15 23 27
36 27 29 0 -10 10 -12 38 -7 20 3 88 13 151 21 116 15 149 27 121 45 -8 5 -25
10 -37 10 -24 0 -108 18 -133 29 -8 3 -37 4 -65 1z"/>
<path d="M2406 4634 c-23 -23 -20 -30 4 -9 11 10 20 20 20 22 0 7 -9 2 -24
-13z"/>
<path d="M2530 4643 c-44 -8 -140 -55 -134 -65 9 -13 64 0 98 24 29 21 30 21
40 3 6 -10 21 -30 34 -43 29 -30 66 -24 106 20 28 31 28 31 58 13 44 -25 45
-11 2 21 -32 25 -47 29 -108 31 -39 0 -82 -1 -96 -4z"/>
<path d="M3250 4629 c0 -5 5 -7 10 -4 6 3 10 8 10 11 0 2 -4 4 -10 4 -5 0 -10
-5 -10 -11z"/>
<path d="M3322 4590 c-46 -11 -68 -33 -24 -24 25 5 32 3 32 -9 0 -24 33 -57
68 -67 29 -8 36 -6 65 24 l33 33 27 -30 c15 -16 27 -35 27 -43 0 -25 20 -25
46 1 l25 26 -18 32 c-12 20 -28 33 -44 35 -13 1 -52 10 -87 19 -65 17 -83 14
-62 -12 10 -11 10 -15 0 -15 -6 0 -14 9 -17 20 -6 21 -17 23 -71 10z"/>
<path d="M1952 4449 c2 -7 10 -15 17 -17 8 -3 12 1 9 9 -2 7 -10 15 -17 17 -8
3 -12 -1 -9 -9z"/>
<path d="M3100 4305 c0 -8 4 -15 10 -15 5 0 7 7 4 15 -4 8 -8 15 -10 15 -2 0
-4 -7 -4 -15z"/>
<path d="M3130 4221 c0 -12 5 -21 10 -21 6 0 10 6 10 14 0 8 -4 18 -10 21 -5
3 -10 -3 -10 -14z"/>
<path d="M3020 4170 c-19 -16 -46 -30 -60 -30 -15 0 -31 -5 -37 -11 -7 -7 -19
-2 -41 16 -19 16 -41 25 -54 23 -35 -5 -27 -31 12 -43 19 -6 49 -18 67 -28 27
-14 42 -16 95 -8 69 10 118 26 118 38 -1 27 -15 53 -29 53 -9 0 -21 4 -26 9
-6 6 -23 -1 -45 -19z"/>
<path d="M3157 4149 c-4 -28 -12 -57 -18 -65 -9 -11 -7 -14 9 -14 24 0 32 18
32 75 0 62 -16 64 -23 4z"/>
<path d="M2670 3834 c-51 -12 -61 -37 -17 -42 15 -2 49 1 75 6 81 16 395 -14
451 -42 38 -20 91 -21 91 -2 0 19 -18 31 -77 50 -53 18 -88 20 -228 14 -52 -3
-104 2 -150 13 -79 19 -83 19 -145 3z"/>
<path d="M2933 3663 c9 -2 25 -2 35 0 9 3 1 5 -18 5 -19 0 -27 -2 -17 -5z"/>
<path d="M3405 2080 c-3 -5 -1 -10 4 -10 6 0 11 5 11 10 0 6 -2 10 -4 10 -3 0
-8 -4 -11 -10z"/>
<path d="M3368 2033 c-10 -2 -18 -9 -18 -14 0 -13 12 -11 34 6 20 15 16 17
-16 8z"/>
<path d="M3311 1976 c-13 -7 -19 -16 -14 -19 6 -4 18 2 28 13 21 23 19 24 -14
6z"/>
<path d="M2850 1435 c0 -8 7 -15 15 -15 8 0 15 7 15 15 0 8 -7 15 -15 15 -8 0
-15 -7 -15 -15z"/>
<path d="M2802 1378 c6 -18 28 -21 28 -4 0 9 -7 16 -16 16 -9 0 -14 -5 -12
-12z"/>
<path d="M2755 1330 c-3 -5 -3 -15 1 -21 6 -11 23 6 24 24 0 10 -18 9 -25 -3z"/>
<path d="M2690 1265 c0 -8 7 -15 15 -15 8 0 15 7 15 15 0 8 -7 15 -15 15 -8 0
-15 -7 -15 -15z"/>
</g>
</svg>
